<svg xmlns="http://www.w3.org/2000/svg" version="1.1" xmlns:xlink="http://www.w3.org/1999/xlink" xmlns:svgjs="http://svgjs.dev/svgjs" width="1000" height="1000" viewBox="0 0 1000 1000"><rect width="1000" height="1000" fill="#000000"></rect><g transform="matrix(0.7,0,0,0.7,149.57575757575756,394.9534025162371)"><svg viewBox="0 0 396 119" data-background-color="#ffffff" preserveAspectRatio="xMidYMid meet" height="300" width="1000" xmlns="http://www.w3.org/2000/svg" xmlns:xlink="http://www.w3.org/1999/xlink"><g id="tight-bounds" transform="matrix(1,0,0,1,0.2400000000000091,0.026405240798993646)"><svg viewBox="0 0 395.52 118.94718951840204" height="118.94718951840204" width="395.52"><g><svg viewBox="0 0 395.52 118.94718951840204" height="118.94718951840204" width="395.52"><g><svg viewBox="0 0 395.52 118.94718951840204" height="118.94718951840204" width="395.52"><g><svg viewBox="0 0 395.52 118.94718951840204" height="118.94718951840204" width="395.52"><g><svg viewBox="0 0 395.52 118.94718951840204" height="118.94718951840204" width="395.52"><g><rect width="395.52" height="91.54893888652784" fill="none" stroke-width="9.018103199999999" stroke="#dc1a21" data-fill-palette-color="none" data-stroke-palette-color="tertiary"></rect><rect width="395.52" height="27.398250631874205" y="91.54893888652784" fill="#dc1a21" data-fill-palette-color="tertiary"></rect></g><g><svg viewBox="0 0 395.52 91.54893888652784" height="91.54893888652784" width="395.52"><g transform="matrix(1,0,0,1,23.607599999999998,23.607599999999998)"><svg width="348.3048" viewBox="4 -29.450000762939453 235.2899932861328 29.950000762939453" height="44.33373888652784" data-palette-color="#dc1a21"><path d="M36.45 0.5L36.45 0.5Q34.45 0.5 32-0.13 29.55-0.75 27.15-3.2L27.15-3.2 25.05-5.3Q23.55-6.8 22.18-7.75 20.8-8.7 19.05-9.18 17.3-9.65 14.65-9.65L14.65-9.65 14.25-9.65 14.25 0 4.5 0 4.5-25.4 4-29.45 27.15-29.45Q30.35-29.45 32.33-28.68 34.3-27.9 35.38-26.63 36.45-25.35 36.85-23.75 37.25-22.15 37.25-20.5L37.25-20.5 37.25-19.55Q37.25-16.55 35.73-14.18 34.2-11.8 30.9-10.8L30.9-10.8Q32.15-10.05 33.27-9.28 34.4-8.5 35.85-7.65L35.85-7.65Q37.5-6.7 38.93-6.28 40.35-5.85 41.3-5.75 42.25-5.65 42.4-5.65L42.4-5.65 40.9 0Q40.3 0.15 39.08 0.33 37.85 0.5 36.45 0.5ZM20.05-16.3L20.05-16.3Q21.3-16.3 22.48-16.35 23.65-16.4 24.6-16.5L24.6-16.5Q26.3-16.7 26.93-17.57 27.55-18.45 27.55-19.7L27.55-19.7 27.55-20.25Q27.55-21.35 26.93-21.95 26.3-22.55 24.65-22.55L24.65-22.55 14.25-22.55 14.25-16.5Q15.5-16.45 17-16.38 18.5-16.3 20.05-16.3ZM75.2 0L46.9 0 46.9-29.4 79-29.4 79-22.6 56.65-22.6 56.65-18.45 73.2-18.45 73.2-11.5 56.65-11.5 56.65-6.85 78.2-6.85 81.2-0.55Q81.2-0.35 79.85-0.18 78.5 0 75.2 0L75.2 0ZM109.4 0L86.7 0 86.7-25.4 86.2-29.4 109.4-29.4Q115.45-29.4 118.47-27 121.5-24.6 121.5-19.5L121.5-19.5 121.5-9.95Q121.5-4.75 118.5-2.38 115.5 0 109.4 0L109.4 0ZM96.45-22.6L96.45-6.9 107.9-6.9Q111.75-6.9 111.8-10.45L111.8-10.45 111.8-19.1Q111.8-20.55 110.95-21.58 110.1-22.6 107.9-22.6L107.9-22.6 96.45-22.6ZM153.29 0L128.49 0 128.49-29.45 151.29-29.45Q155.99-29.45 158.14-27.58 160.29-25.7 160.29-23.05L160.29-23.05 160.29-21.55Q160.29-19.5 159.42-18.18 158.54-16.85 157.54-16.3L157.54-16.3Q159.74-15.6 161.04-13.88 162.34-12.15 162.34-9.35L162.34-9.35 162.34-8.45Q162.34-6.95 161.99-5.45 161.64-3.95 160.67-2.73 159.69-1.5 157.92-0.75 156.14 0 153.29 0L153.29 0ZM138.24-22.6L138.24-18.1 148.24-18.1Q149.54-18.1 150.04-18.65 150.54-19.2 150.54-20.15L150.54-20.15 150.54-20.65Q150.54-21.7 150.04-22.15 149.54-22.6 147.79-22.6L147.79-22.6 138.24-22.6ZM138.24-11.75L138.24-6.85 150.29-6.85Q151.59-6.85 152.09-7.33 152.59-7.8 152.59-8.85L152.59-8.85 152.59-9.75Q152.59-10.7 151.94-11.23 151.29-11.75 149.69-11.75L149.69-11.75 138.24-11.75ZM197.64 0L169.34 0 169.34-29.4 201.44-29.4 201.44-22.6 179.09-22.6 179.09-18.45 195.64-18.45 195.64-11.5 179.09-11.5 179.09-6.85 200.64-6.85 203.64-0.55Q203.64-0.35 202.29-0.18 200.94 0 197.64 0L197.64 0ZM227.24 0L217.54 0 217.54-22.65 205.64-22.65 205.64-29.45 239.29-29.45 239.29-22.65 227.24-22.65 227.24 0Z" opacity="1" transform="matrix(1,0,0,1,0,0)" fill="#ffffff" class="undefined-text-0" data-fill-palette-color="primary" id="text-0"></path></svg></g></svg></g></svg></g></svg></g></svg></g></svg></g><defs></defs></svg><rect width="395.52" height="118.94718951840204" fill="none" stroke="none" visibility="hidden"></rect></g></svg></g></svg>